<svg xmlns="http://www.w3.org/2000/svg" viewBox="0 0 251.83 95.53"><defs><style>.cls-1{fill:#fff;}</style></defs><g id="圖層_2" data-name="圖層 2"><g id="圖層_1-2" data-name="圖層 1"><path class="cls-1" d="M7.75.7A35.09,35.09,0,0,1,5.28,5.88V22H3.6V8.5a23.71,23.71,0,0,1-2.43,3,9.27,9.27,0,0,0-1-1.73A27.43,27.43,0,0,0,6.1.19ZM19.31,15.3h3.36v1.44H19.31v3.41c0,1-.22,1.42-1,1.66a14.59,14.59,0,0,1-3.75.24A6.42,6.42,0,0,0,14,20.53a29.46,29.46,0,0,0,3.08,0c.38,0,.48-.09.48-.4V16.74H6.7V15.3H17.58V13.74c-3.8.12-7.5.24-10.23.29l-.17-1.45c1.82,0,4.2,0,6.77-.07V11.05H8.33V4.68H14V3.31H7.37V2H14V.29h1.73V2h6.75V3.31H15.68V4.68h5.79v6.37H19.69a20.8,20.8,0,0,1,3.12,2.83l-1.29.82a12.87,12.87,0,0,0-.94-1.06l-1.27,0Zm-7.07,5.52a19,19,0,0,0-3-3.24l1.32-.84a18.86,18.86,0,0,1,3,3.12ZM10,7.3h4V5.81H10Zm4,2.62V8.38H10V9.92Zm1.73-4.11V7.3h4.08V5.81Zm4.08,2.57H15.68V9.92h4.08Zm-4.08,4.09,3.55-.08c-.48-.41-1-.79-1.41-1.13l.38-.21H15.68Z"/><path class="cls-1" d="M31,15.71a31.77,31.77,0,0,1-1.2,5.79A10,10,0,0,0,28.41,21a27.21,27.21,0,0,0,1.15-5.53Zm4.9-1.4c-.07-.36-.17-.76-.29-1.22-5.28.86-6,1.06-6.46,1.32a12.34,12.34,0,0,0-.55-1.66c.5-.12,1.06-.72,1.78-1.61a27.37,27.37,0,0,0,2-2.69c-2.52.32-3,.41-3.33.58-.1-.36-.39-1.2-.56-1.66.39-.09.82-.57,1.3-1.29A30.53,30.53,0,0,0,33,0l1.63.7a40.9,40.9,0,0,1-3.84,6.51L33.31,7c.67-1.08,1.34-2.26,1.92-3.44l1.49.92a44.79,44.79,0,0,1-5.45,7.87l3.91-.55c-.29-.79-.57-1.58-.91-2.28L35.57,9a24.44,24.44,0,0,1,1.7,4.76Zm-2.43,1a46,46,0,0,1,.65,5.05l-1.41.33a41.38,41.38,0,0,0-.58-5.09ZM36,19.48a30.22,30.22,0,0,0-1.27-4.35L36,14.72a30,30,0,0,1,1.37,4.33Zm12.3.55c.5,0,.6-.46.65-3.17a5.48,5.48,0,0,0,1.58.7c-.16,3.21-.6,4.06-2.06,4.06h-2c-1.68,0-2.09-.53-2.09-2.31V10.9l-2.26.27c-.19,5.67-.91,9-5.14,11a4,4,0,0,0-1.08-1.39c3.77-1.61,4.35-4.42,4.49-9.37a9.81,9.81,0,0,0-2.35.48,16.11,16.11,0,0,0-.63-1.77c.48-.12,1-.77,1.66-1.76a38.39,38.39,0,0,0,2.07-3.5H37.56V3.15h4.37c.48-1,.94-2,1.32-3L45.17.7c-.36.81-.76,1.65-1.17,2.45h6.19V4.83H43.13a41.67,41.67,0,0,1-3.07,4.92l7.06-.67c-.53-.91-1.08-1.85-1.61-2.67L47,5.79a42.72,42.72,0,0,1,3.36,5.76l-1.59.77a17.74,17.74,0,0,0-.86-1.82l-1.83.19v8.6c0,.62.07.74.6.74Z"/><path class="cls-1" d="M60.45,10.66a22,22,0,0,0-4-2.47l.88-1.32A20.93,20.93,0,0,1,61.39,9.2ZM62.06,14c-1.08,2.5-2.5,5.41-3.67,7.62L57,20.37a74.15,74.15,0,0,0,3.87-7.62ZM61.75,4.4a23.57,23.57,0,0,0-4.11-2.67l.91-1.3A22.35,22.35,0,0,1,62.73,3ZM77.09,1.61A65.34,65.34,0,0,1,65.9,3.91V8.55c0,4-.41,9.68-3,13.59a5.08,5.08,0,0,0-1.42-.86c2.55-3.75,2.79-9,2.79-12.73v-6A65.88,65.88,0,0,0,75.68.17Zm1.23,9.25c-1.23,1-2.64,2.18-3.84,3a12.22,12.22,0,0,0,4.13,6.31,5.9,5.9,0,0,0-1.27,1.49c-3.42-2.66-5-8-5.82-14.26-.6.12-1.15.21-1.73.29V19.07l3.61-1.44a7.1,7.1,0,0,0,.33,1.44c-4.63,2-5.28,2.35-5.69,2.71a5.94,5.94,0,0,0-.7-1.49,1.59,1.59,0,0,0,.87-1.51V6.46a32.86,32.86,0,0,0,7-1.85L76.66,6A27.82,27.82,0,0,1,73,7.09,44.49,44.49,0,0,0,74,12.42a31.13,31.13,0,0,0,3-2.84Z"/><path class="cls-1" d="M90.62,15.61h4.27v1.54H90.62V22H89v-4.8H84.47V15.61H89V13H85V11.46h2.23A10.54,10.54,0,0,0,86.1,8.53l1.32-.36A9.76,9.76,0,0,1,88.65,11l-1.2.44h3a26.21,26.21,0,0,0,1.65-3.39l1.54.41c-.5,1-1.08,2.06-1.61,3h2.4V13H90.62Zm4.23-7.54H84.49V6.51H89V4.11H85.19V2.57H89V.14h1.66V2.57h3.62V4.11H90.62v2.4h4.23Zm10.78,1.56a22.3,22.3,0,0,1-2.93,7.78,12,12,0,0,0,3.82,3,6.84,6.84,0,0,0-1.23,1.44,13.42,13.42,0,0,1-3.6-3.05,14.73,14.73,0,0,1-3.51,3.27,4.32,4.32,0,0,0-.79-.89V22H95.76V1.2h9.29V5.81c0,.91-.17,1.37-.91,1.64a13.49,13.49,0,0,1-3.77.28,5.61,5.61,0,0,0-.55-1.58c1.49,0,2.73,0,3.09,0s.49-.09.49-.38v-3h-6V9.29h6.82l.29-.07Zm-8.24,11a13.65,13.65,0,0,0,3.27-3.17,24.13,24.13,0,0,1-3-6.66h-.22Zm1.75-9.83A20.79,20.79,0,0,0,101.59,16a18.6,18.6,0,0,0,2.07-5.19Z"/><path class="cls-1" d="M125,13.4l-4-6.24h2.35L125.16,10c.41.74.86,1.46,1.29,2.18h.1c.41-.72.79-1.44,1.18-2.18l1.61-2.86h2.28l-4,6.46L132,20.2h-2.4l-1.92-3.05c-.43-.79-.91-1.59-1.39-2.33h-.12c-.46.74-.89,1.54-1.35,2.33L123,20.2h-2.31Z"/><path class="cls-1" d="M168.1,13.62h-9.85V22h-1.82v-8.4h-9.7V11.86h9.7V3.48H148V1.73h18.79V3.48h-8.51v8.38h9.85Zm-16.88-9a23.22,23.22,0,0,1,2.28,5.4l-1.68.58a28.35,28.35,0,0,0-2.16-5.5Zm9.65,5.55a35.73,35.73,0,0,0,2.6-5.67l1.87.53a47.4,47.4,0,0,1-3,5.64Z"/><path class="cls-1" d="M186,3.41c-.29,1-.63,2.09-.94,3h9.63V22.05h-1.8V20.77H177.54v1.28h-1.73V6.41h7.42c.27-.91.51-2,.7-3h-9.2V1.71h21.11v1.7Zm-8.46,15.71H181v-11h-3.41Zm10.11-11h-5.07v2.64h5.07Zm0,4.11h-5.07v2.69h5.07Zm-5.07,6.94h5.07V16.33h-5.07Zm10.31-11h-3.6V19.12h3.6Z"/><path class="cls-1" d="M211.38,5.64H202.3V4.18h9.08Zm11.41,5.43A15.34,15.34,0,0,1,218.52,18a16.58,16.58,0,0,0,5.66,2.4,7.63,7.63,0,0,0-1.1,1.61,16.92,16.92,0,0,1-6-2.86,19.1,19.1,0,0,1-6,2.93,6.82,6.82,0,0,0-.82-1.49h-5.48v1.13h-1.56V13.64h7.09v6.77A17.27,17.27,0,0,0,215.75,18a16.62,16.62,0,0,1-3.6-5.31l1-.36h-2.06V10.64h10.23l.29-.07ZM210.4,7.33V8.74h-7.06V7.33Zm-7.06,3.12h7.08v1.41h-7.08Zm5.47,4.68h-3.94v4h3.94ZM206.7,3.91A25.1,25.1,0,0,0,204.9.7l1.39-.7a19.87,19.87,0,0,1,1.85,3.1Zm8.41-.26A6.91,6.91,0,0,1,211.62,10a9,9,0,0,0-1.15-1.3,5.37,5.37,0,0,0,3-5.14V1h7.3V6.53c0,.68.05.89.38.89h1.42a5.47,5.47,0,0,0,1.06-.12c0,.46.07,1.13.12,1.54a4.14,4.14,0,0,1-1.18.12H221c-1.56,0-1.9-.67-1.9-2.48V2.64h-4Zm-1.37,8.67a13.27,13.27,0,0,0,3.38,4.59,12.91,12.91,0,0,0,3.39-4.59Z"/><path class="cls-1" d="M240.45,5.64h-9.88V4.18h9.88Zm-8.82,1.69h7.81V8.74h-7.81Zm7.76,4.53h-7.76V10.45h7.76Zm0,8.72h-6v1.13h-1.56V13.64h7.59Zm-6-5.45v4h4.47v-4Zm1.81-11.22A25.45,25.45,0,0,0,233.43.72l1.35-.7a18.56,18.56,0,0,1,1.85,3.08Zm16.64,6.23h-4.92V22.05h-1.8V10.14H240.4V8.38h4.71V.55h1.8V8.38h4.92Z"/><path class="cls-1" d="M3.93,56.47a13.52,13.52,0,0,1-1.1,1.65v7.07H2v-6A13.7,13.7,0,0,1,.53,60.5,7.16,7.16,0,0,0,0,59.67a12,12,0,0,0,3.1-3.49Zm-.28-2.53a13.21,13.21,0,0,1-3,3,6.9,6.9,0,0,0-.53-.68,9.9,9.9,0,0,0,2.65-2.63ZM8.34,64.09a6.52,6.52,0,0,0,1.12.09h2.33a2.7,2.7,0,0,0-.29.84H9.41c-1.89,0-3.2-.45-4-2.32a5.44,5.44,0,0,1-1.5,2.43,4.81,4.81,0,0,0-.71-.61C4.45,63.46,4.89,61.75,5,59.45l.9.06a16.38,16.38,0,0,1-.22,1.86,3.49,3.49,0,0,0,1.77,2.45V58.54h.17A5.14,5.14,0,0,0,7,58.06a6.28,6.28,0,0,0,2.26-4.44l.9.12a11.09,11.09,0,0,1-.5,2.06A17,17,0,0,1,11.86,58l-.65.64a17.51,17.51,0,0,0-1.89-2,6.08,6.08,0,0,1-1.47,1.95h.49v2.12h2.81v.8H8.34ZM7.18,57.67a12.48,12.48,0,0,0-1.26-1.22,7.66,7.66,0,0,1-1.63,2.37,4.46,4.46,0,0,0-.71-.65,7.76,7.76,0,0,0,2.29-4.55l.91.14a13.73,13.73,0,0,1-.55,1.94A10.61,10.61,0,0,1,7.62,57Z"/><path class="cls-1" d="M19.76,56.53H15v-.77h4.78Zm6,2.86A8,8,0,0,1,23.51,63a8.65,8.65,0,0,0,3,1.26,3.65,3.65,0,0,0-.58.85,8.9,8.9,0,0,1-3.14-1.51,10.07,10.07,0,0,1-3.13,1.55,3.81,3.81,0,0,0-.43-.79H16.33V65h-.82V60.74h3.73V64.3A9.09,9.09,0,0,0,22.06,63a8.62,8.62,0,0,1-1.9-2.8l.55-.19H19.62v-.88H25l.15,0Zm-6.52-2v.75H15.52v-.75Zm-3.72,1.65h3.73v.74H15.52Zm2.89,2.46H16.33v2.09h2.08Zm-1.12-5.9a12.83,12.83,0,0,0-.94-1.69l.73-.37a10.38,10.38,0,0,1,1,1.63Zm4.43-.14a3.63,3.63,0,0,1-1.83,3.36,5,5,0,0,0-.61-.68,2.84,2.84,0,0,0,1.57-2.7v-1.4h3.84V57c0,.35,0,.47.2.47h.75a2.59,2.59,0,0,0,.55-.07c0,.24,0,.6.07.81a2.12,2.12,0,0,1-.62.06h-.82c-.83,0-1-.35-1-1.3V55h-2.1ZM21,60a6.89,6.89,0,0,0,1.78,2.42A6.74,6.74,0,0,0,24.56,60Z"/><path class="cls-1" d="M35.05,56.53H29.86v-.77h5.19Zm-4.63.88h4.1v.75h-4.1ZM34.5,59.8H30.42v-.74H34.5Zm0,4.59H31.34V65h-.82V60.74h4Zm-3.17-2.87v2.09h2.35V61.52Zm.95-5.9a13.14,13.14,0,0,0-.93-1.68l.71-.37a9.09,9.09,0,0,1,1,1.62Zm8.76,3.27H38.46v6.27h-1V58.89H35V58h2.48V53.85h1V58h2.59Z"/><path class="cls-1" d="M48.3,63l2.63-.49.07.82-6.29,1.2-.2-.87,2.9-.51V61H44.94v-.84h2.47V58.83h.89v1.35h2.52V61H48.3Zm-3.69-8.55h6.46v.84H47.66a16.76,16.76,0,0,1-1.46,2.35l3.23-.28c-.31-.44-.63-.87-.94-1.25l.67-.4a17.47,17.47,0,0,1,1.91,2.7l-.72.47a6.81,6.81,0,0,0-.44-.79c-3.93.38-4.39.43-4.69.57a5.6,5.6,0,0,0-.32-.88c.2,0,.39-.25.61-.56a12,12,0,0,0,1.1-1.93h-2Zm8,7.87h-.88v-7.6h.88Zm2.52-8.49v9.87c0,.59-.14.88-.52,1a6.43,6.43,0,0,1-2,.18,4.22,4.22,0,0,0-.34-.93c.73,0,1.42,0,1.64,0s.26-.07.26-.28V53.82Z"/><path class="cls-1" d="M61,59.17a11.21,11.21,0,0,0-2.12-1.3l.47-.7a11.37,11.37,0,0,1,2.15,1.23Zm.85,1.73c-.57,1.32-1.31,2.85-1.93,4l-.74-.63a37,37,0,0,0,2-4Zm-.16-5a13.24,13.24,0,0,0-2.16-1.4l.48-.68a12,12,0,0,1,2.2,1.34Zm8.08-1.46a35.39,35.39,0,0,1-5.9,1.21v2.44c0,2.09-.21,5.09-1.59,7.15a2.76,2.76,0,0,0-.74-.45c1.34-2,1.46-4.73,1.46-6.7V54.91a35.13,35.13,0,0,0,6-1.26Zm.64,4.86a24.81,24.81,0,0,1-2,1.58,6.5,6.5,0,0,0,2.17,3.33,3.17,3.17,0,0,0-.67.78c-1.79-1.4-2.63-4.22-3.06-7.51a7.19,7.19,0,0,1-.91.15v6l1.9-.76a3.26,3.26,0,0,0,.18.76A15.58,15.58,0,0,0,65,65a3.09,3.09,0,0,0-.37-.78.83.83,0,0,0,.46-.8V57a17.74,17.74,0,0,0,3.7-1l.75.72a16.21,16.21,0,0,1-1.94.58,23.11,23.11,0,0,0,.56,2.8,14.41,14.41,0,0,0,1.59-1.49Z"/><path class="cls-1" d="M78.29,61.54a2.23,2.23,0,0,1,0,.36c-.15,1.77-.32,2.52-.62,2.81a1.17,1.17,0,0,1-.83.31,13.8,13.8,0,0,1-1.67,0,1.92,1.92,0,0,0-.28-.81c.68.06,1.38.08,1.62.08s.35,0,.45-.12.33-.68.45-1.88h-2.9c.15-.75.33-1.87.44-2.77h2.51V58.17H75.3V58a9.08,9.08,0,0,1-1.4.6,2.88,2.88,0,0,0-.5-.7,9.32,9.32,0,0,0,2.49-1.19,10.75,10.75,0,0,0-1.43-1.09l.54-.51a7.69,7.69,0,0,1,1.51,1.12,6.33,6.33,0,0,0,1.21-1.34H74.79v-.77h3.42l.17,0,.58.31a7.26,7.26,0,0,1-2.66,3h2v2.8H75.6c-.07.45-.13.9-.19,1.31Zm5.56-.35a5.43,5.43,0,0,1-1.63,2.28c.67.42,1.28.8,1.71,1.11l-.47.61c-.46-.34-1.13-.78-1.86-1.24a9.55,9.55,0,0,1-2.89,1.23,2.64,2.64,0,0,0-.43-.7,9,9,0,0,0,2.59-1c-.69-.41-1.38-.83-2-1.17l.45-.52c.67.36,1.46.81,2.2,1.24a5.21,5.21,0,0,0,1.22-1.35H78.87V61h4.31l.15,0Zm.94-5.75A12.46,12.46,0,0,1,83,56.83a8.15,8.15,0,0,0,2.17.9,3.6,3.6,0,0,0-.57.73,8.88,8.88,0,0,1-1.81-.77v1.68c0,.28,0,.37.21.37h.94a3.2,3.2,0,0,0,.61-.05,4.91,4.91,0,0,0,0,.67,2.41,2.41,0,0,1-.65,0h-1c-.78,0-.93-.3-.93-1V58.14H80.27v.25a2.6,2.6,0,0,1-1.37,2.39,3,3,0,0,0-.61-.58,1.93,1.93,0,0,0,1.17-1.84v-1h2.81a8.57,8.57,0,0,1-3-3.52l.75-.23a6.74,6.74,0,0,0,1,1.53,14.58,14.58,0,0,0,1.6-1.46l.69.49a17.49,17.49,0,0,1-1.82,1.47,6.36,6.36,0,0,0,.92.77A15,15,0,0,0,84.09,55Z"/><path class="cls-1" d="M11,89.49a13.06,13.06,0,0,1-2.2,3c.48,1.32,1,2.13,1.68,2.13.34,0,.49-.64.57-2.26a2.33,2.33,0,0,0,.8.51c-.18,2.08-.51,2.69-1.46,2.69s-1.76-.89-2.34-2.37A12.88,12.88,0,0,1,5.39,95a3.67,3.67,0,0,0-.65-.74,12.78,12.78,0,0,0,3-2A22.35,22.35,0,0,1,7,88.56h-3v2l2.26-.5.06.85c-.77.19-1.55.37-2.32.54v2.81c0,.61-.15.88-.55,1a7,7,0,0,1-2.09.17,4.21,4.21,0,0,0-.36-.94c.81,0,1.56,0,1.77,0s.31-.07.31-.29V91.71c-1,.2-1.86.42-2.62.58l-.27-1C1,91.22,2,91,3.14,90.78V88.56H.43v-.89H3.14v-2c-.79.15-1.59.27-2.33.37a3.78,3.78,0,0,0-.3-.78,27.67,27.67,0,0,0,5-1.14l.67.77a17.51,17.51,0,0,1-2.11.59v2.2H7c-.11-1.16-.16-2.37-.17-3.61h1c0,1.27,0,2.48.15,3.61h3.72v.89H8a21.88,21.88,0,0,0,.52,2.89,11.15,11.15,0,0,0,1.65-2.31Zm-.47-2.56a13,13,0,0,0-2-2.15l.72-.49a13.4,13.4,0,0,1,2,2.1Z"/><path class="cls-1" d="M18.19,84.26a23.94,23.94,0,0,1-1,2.47v8.76h-.9V88.41a13.38,13.38,0,0,1-1.19,1.7,6.59,6.59,0,0,0-.49-1A15.43,15.43,0,0,0,17.32,84Zm3.57,5H19.25v6.22h-.87V84.68h3.38Zm-2.51-3.82v1.15H21V85.43ZM21,88.51V87.29H19.25v1.22Zm5,5.75c0,.61-.14.9-.56,1a8.19,8.19,0,0,1-2.35.17,5.33,5.33,0,0,0-.31-.9c.89,0,1.77,0,2,0s.32-.09.32-.34v-5H22.51V84.68H26Zm-2.74-8.83v1.15h1.85V85.43Zm1.85,3.08V87.29H23.29v1.22Z"/><path class="cls-1" d="M38.35,91.94a5.49,5.49,0,0,1-1.63,1.76,35.1,35.1,0,0,1,4,1.11l-.85.67a34.11,34.11,0,0,0-4.16-1.2,16.34,16.34,0,0,1-5.64,1.22,2.55,2.55,0,0,0-.38-.82A18.34,18.34,0,0,0,34.26,94c-.95-.19-1.94-.38-2.93-.55a16.23,16.23,0,0,0,1.13-1.46H29.73v-.81H33c.29-.46.55-.91.76-1.33l.91.22A8.3,8.3,0,0,1,34,91.13h3.68A4.75,4.75,0,0,0,38,90.4l.9.26a4.52,4.52,0,0,1-.18.47h2.17v.81Zm-5-6.6H29.93V84.5h10.8v.84H37.18V86.4h3v3.25H30.55V86.4h2.8Zm-1.9,3.54h1.9V87.17h-1.9Zm2.06,3.06c-.24.35-.48.69-.71,1l2.7.5a5,5,0,0,0,1.74-1.48Zm2.77-6.6h-2V86.4h2Zm-2,3.54h2V87.17h-2Zm2.93-1.71v1.71h2.1V87.17Z"/><path class="cls-1" d="M48.18,86.87h-4V86.1h4Zm-.34,7.9H45.37v.59h-.7V91.13h3.17Zm-3.1-7h3.1v.75h-3.1Zm0,1.67h3.1v.76h-3.1Zm.63,2.47V94h1.76V91.89ZM46.14,86a7.35,7.35,0,0,0-.69-1.69l.68-.24a6.48,6.48,0,0,1,.72,1.67Zm9.38,6.93a10,10,0,0,1-1.53.88,4.82,4.82,0,0,0,1.91,1,3.12,3.12,0,0,0-.53.68A5.28,5.28,0,0,1,52,92.24h-.16a6.38,6.38,0,0,1-1.14.85V94.4L52.6,94a4.16,4.16,0,0,0,0,.72,12,12,0,0,0-2.75.73,2.25,2.25,0,0,0-.41-.61,1.21,1.21,0,0,0,.49-1v-.39a10.52,10.52,0,0,1-1.42.57,5.31,5.31,0,0,0-.49-.62,8.74,8.74,0,0,0,2.76-1.19H48.25v-.68h1.94v-.68H48.87v-.64h1.32v-.67H48.64v-.63h1.55v-.68H48.91V86.14H51.7v2.12H51v.68h1.9v-.68h-.56V86.14h2.86v2.12H53.79v.68h1.69v.63H53.79v.67h1.45v.64H53.79v.68h2v.68H52.82a5.52,5.52,0,0,0,.69,1.06A12.08,12.08,0,0,0,55,92.42Zm.12-7.27H48.43V84.9h3.24a7.63,7.63,0,0,0-.4-.81l.77-.23a5.2,5.2,0,0,1,.55,1h3Zm-6,2.06H51v-1H49.63ZM51,90.24h1.9v-.67H51Zm0,1.32h1.9v-.68H51Zm2.08-3.87h1.36v-1H53.11Z"/><path class="cls-1" d="M62.68,84.2A13.2,13.2,0,0,1,61.56,86v5.12h-.91v-4a11.24,11.24,0,0,1-1.21,1.19,7.79,7.79,0,0,0-.62-.73,11.15,11.15,0,0,0,3-3.67ZM59,94.58a12.56,12.56,0,0,0,1.28-2.73l.85.35A20.31,20.31,0,0,1,59.87,95Zm7.53-.19c.69,0,.81-.19.87-1.47a2.3,2.3,0,0,0,.87.36c-.13,1.59-.43,2-1.68,2h-3c-1.49,0-1.88-.26-1.88-1.29V91.79h.93V94c0,.37.15.43,1,.43ZM64.27,86A8,8,0,0,1,63,87.65a5.89,5.89,0,0,0-.7-.59,7.55,7.55,0,0,0,2-3.09l.87.22c-.13.31-.27.63-.42,1h4.73l.15,0,.65.18a20.18,20.18,0,0,1-1,2.08l-.79-.16c.17-.33.4-.79.6-1.24Zm.83,1.71a8.46,8.46,0,0,1-1.73,2.64,4.23,4.23,0,0,0-.71-.53,6.5,6.5,0,0,0,1.58-2.35Zm.26,5.79a10.85,10.85,0,0,0-1.79-2.23l.72-.4A10.67,10.67,0,0,1,66.14,93ZM67,91.08h-.9V86.43H67Zm1.47-3.68a11.55,11.55,0,0,1,1.59,2.49l-.81.43a12,12,0,0,0-1.54-2.57Zm.37,4.23a12.18,12.18,0,0,1,1.4,2.84l-.9.36A11.2,11.2,0,0,0,68,92Z"/><path class="cls-1" d="M77.07,84.11c-.21.62-.44,1.32-.65,1.86h2.1v8.21H75v1h-.86V86h1.42a15.67,15.67,0,0,0,.5-2Zm.59,2.71H75v2.64h2.66Zm0,6.51v-3H75v3Zm7-6.92c-.2,5.77-.37,7.72-.87,8.33a1.26,1.26,0,0,1-1,.51,13,13,0,0,1-1.87,0,2.25,2.25,0,0,0-.32-.93c.82.08,1.58.08,1.87.08s.39,0,.52-.19c.42-.44.61-2.36.77-7.39H80.59A10.89,10.89,0,0,1,79.4,89a6.15,6.15,0,0,0-.77-.53,12.77,12.77,0,0,0,1.93-4.59l.9.21a18.2,18.2,0,0,1-.54,1.82H84.7Zm-2.8,5.71A22,22,0,0,0,80,89.2l.74-.43a24.89,24.89,0,0,1,2,2.85Z"/><path class="cls-1" d="M93.08,86.87H88.3V86.1h4.78Zm6,2.86a8,8,0,0,1-2.25,3.64,8.65,8.65,0,0,0,3,1.26,3.65,3.65,0,0,0-.58.85A8.9,8.9,0,0,1,96.1,94,10.23,10.23,0,0,1,93,95.52a3.35,3.35,0,0,0-.42-.79H89.65v.6h-.82V91.08h3.73v3.56a9.09,9.09,0,0,0,2.82-1.27,8.62,8.62,0,0,1-1.9-2.8l.55-.19H92.94V89.5h5.39l.15,0Zm-6.52-2v.75H88.84v-.75ZM88.84,89.4h3.73v.74H88.84Zm2.89,2.46H89.65V94h2.08ZM90.61,86a13.57,13.57,0,0,0-.94-1.7l.73-.36a10.38,10.38,0,0,1,1,1.63ZM95,85.82a3.63,3.63,0,0,1-1.83,3.36,5,5,0,0,0-.61-.68,2.84,2.84,0,0,0,1.57-2.71V84.4H98v2.94c0,.35,0,.46.2.46H99a2.57,2.57,0,0,0,.55-.06c0,.24,0,.6.07.81a2.12,2.12,0,0,1-.62.06h-.82c-.83,0-1-.35-1-1.3v-2H95Zm-.72,4.56A6.89,6.89,0,0,0,96.1,92.8a6.74,6.74,0,0,0,1.78-2.42Z"/><path class="cls-1" d="M108.37,86.87h-5.19V86.1h5.19Zm-4.63.88h4.1v.75h-4.1Zm4.08,2.39h-4.08V89.4h4.08Zm0,4.59h-3.17v.6h-.82V91.08h4Zm-3.17-2.87V94H107V91.86Zm1-5.9a13.14,13.14,0,0,0-.93-1.68l.71-.37a9.09,9.09,0,0,1,1,1.62Zm8.76,3.27h-2.59V95.5h-1V89.23h-2.48v-.92h2.48V84.19h1v4.12h2.59Z"/><path class="cls-1" d="M119.79,92.81a8.43,8.43,0,0,1-1.58,2.69,5.56,5.56,0,0,0-.75-.54,5.88,5.88,0,0,0,1.43-2.36Zm2.43-.49h-4.1V84.44h4.1Zm-.9-7.09H119v1.59h2.34Zm0,2.33H119v1.61h2.34Zm0,2.36H119v1.64h2.34Zm0,2.65a9.69,9.69,0,0,1,1.26,2l-.8.4a10,10,0,0,0-1.2-2Zm4.71-5V90h2.44v5.45h-.91V94.9H124v.59h-.89V90h2.06V84h.93V86.7h3v.86Zm1.53,3.27H124v3.22h3.63Z"/><path class="cls-1" d="M134.25,89.38a9.2,9.2,0,0,0-2.07-1.25l.53-.68a8.2,8.2,0,0,1,2.07,1.16Zm-1.81,5.45a36,36,0,0,0,1.74-4l.75.49c-.46,1.31-1.1,2.86-1.64,4Zm.83-10.74a8.74,8.74,0,0,1,2,1.27l-.55.75a8.52,8.52,0,0,0-2-1.35Zm6.52,3.76v.9h3.53v5.82c0,.43-.09.64-.4.77a5.42,5.42,0,0,1-1.58.13,3,3,0,0,0-.24-.73,10.93,10.93,0,0,0,1.18,0c.15,0,.2,0,.2-.17v-1.2a1.83,1.83,0,0,0-.43.4,3.41,3.41,0,0,1-.85-1.52,3.12,3.12,0,0,1-1,1.56,1.64,1.64,0,0,0-.42-.41,2.89,2.89,0,0,0,1-2H141l-.06-.46h-.72v-.65h1.2a4.32,4.32,0,0,0,1,3V89.56h-2.69v5.79h-.85V93.43a1.61,1.61,0,0,0-.36.38,3.31,3.31,0,0,1-.78-1.52,3.32,3.32,0,0,1-1,1.61,1.55,1.55,0,0,0-.42-.39,3.15,3.15,0,0,0,1-2.1h.22a3.71,3.71,0,0,1,0-.48h-.72v-.65h1.2a4.8,4.8,0,0,0,.88,3V89.56h-2.56v5.91h-.83V88.75h3.39v-.9h-1.79V86h-1.89v-.83h1.89V84H138v1.2h2.72V84h.93v1.2h2V86h-2v1.87Zm-1.75-.8h2.72V86H138Z"/><path class="cls-1" d="M153.43,88.52c.88,2.79,2.53,5.07,5,6.07a4.71,4.71,0,0,0-.71.89c-2.43-1.15-4-3.39-5-6.26a8.86,8.86,0,0,1-5,6.26,2.82,2.82,0,0,0-.7-.77,8.21,8.21,0,0,0,4.91-6.19h-4.66v-1H152a26.36,26.36,0,0,0,.19-3.59h1a30.21,30.21,0,0,1-.21,3.59h5.22v1Z"/><path class="cls-1" d="M164.88,86.77a13.34,13.34,0,0,1-1.1,1.88v6.87h-.87V89.78a12.22,12.22,0,0,1-1.11,1.15,5.34,5.34,0,0,0-.56-.84,10.77,10.77,0,0,0,2.81-3.6Zm-.35-2.49A11.58,11.58,0,0,1,162,87.2a6.12,6.12,0,0,0-.53-.7A8.79,8.79,0,0,0,163.67,84Zm5.12,9.64c-1.85.26-3.77.48-5.15.66l-.1-.87c.61,0,1.35-.14,2.19-.24v-2h-1.85v-.82h1.85V89.13h.9v1.56h1.83v.82h-1.83v1.86l2.16-.26Zm-3.05-7.56h-1.67v-.81h1.67V84h.89v1.59h1.69v.81h-1.69V88h1.92v.84h-4.74V88h1.93Zm6.46,2.56h-1.17v5.43c0,.53-.11.82-.47,1a5.33,5.33,0,0,1-1.9.18,3.79,3.79,0,0,0-.28-.93c.7,0,1.31,0,1.48,0s.24,0,.24-.23V88.92h-1.34v-.86h3.44Zm-.15-3.38h-3.17v-.85h3.17Z"/><path class="cls-1" d="M179.27,87.26a14.24,14.24,0,0,1-2.28,5.5,5.45,5.45,0,0,0-.88-.49,11.86,11.86,0,0,0,2.12-5.2Zm3.26-3.12v10c0,.69-.19,1-.63,1.14a9.05,9.05,0,0,1-2.42.16,4.38,4.38,0,0,0-.39-1c.92,0,1.83,0,2.07,0s.37-.09.37-.34v-10ZM185.44,87a20.24,20.24,0,0,1,2.49,5.58l-1,.42a21,21,0,0,0-2.39-5.66Z"/><path class="cls-1" d="M199.11,88.83a8,8,0,0,0,3.43,2.67,3.6,3.6,0,0,0-.66.79,7.94,7.94,0,0,1-2.44-1.74v2.34H194.5v.92c0,.48.2.59,1.24.59h3.69c.85,0,1-.22,1.08-1.49a2.67,2.67,0,0,0,.87.36c-.15,1.58-.5,2-1.91,2h-3.73c-1.67,0-2.15-.28-2.15-1.45v-3a10,10,0,0,1-2.16,1.61,6.6,6.6,0,0,0-.7-.7,8.27,8.27,0,0,0,3.34-2.91H191V88h3.22V86.29h-2.44v-.84h2.44V84h.92v1.5h3V84h.93v1.5h2.55v.84h-2.55V88h3.3v.85Zm-.21,1.11a9.09,9.09,0,0,1-.76-1.11h-3a7.52,7.52,0,0,1-.76,1.11Zm-.34.8H194.5V92.1h4.06ZM195.09,88h3V86.29h-3Z"/></g></g></svg>