<svg xmlns="http://www.w3.org/2000/svg" viewBox="0 0 165.57 113.52"><defs><style>.cls-1{fill:#e58e12;}.cls-2{fill:none;stroke:#fff;stroke-miterlimit:10;stroke-width:0.85px;}.cls-3{font-size:7.43px;font-family:NotoSansCJKtc-Bold-B5pc-H, Noto Sans CJK TC;}.cls-3,.cls-5,.cls-9{fill:#fff;}.cls-4{letter-spacing:-0.03em;}.cls-5{font-size:14.74px;font-family:NotoSansCJKtc-Regular-B5pc-H, Noto Sans CJK TC;}.cls-6{letter-spacing:-0.01em;}.cls-7{letter-spacing:-0.03em;}.cls-8{letter-spacing:-0.02em;}</style></defs><g id="圖層_2" data-name="圖層 2"><g id="圖層_2-2" data-name="圖層 2"><circle class="cls-1" cx="129.06" cy="36.51" r="36.51"/><path class="cls-2" d="M153,79.86c0,.21,0,.43,0,.65v0a22.07,22.07,0,0,1-1.24,6.28,21.49,21.49,0,0,1-2,4.21,21.87,21.87,0,0,1-2.76,3.53,16.71,16.71,0,0,1-2.39,2.16c4.68-5,3.85-9.34,3.85-9.34h0a8.29,8.29,0,0,1-3.85.93A8.43,8.43,0,1,1,153,79.86Z"/><circle class="cls-2" cx="144.42" cy="57.62" r="8.42"/><text class="cls-3" transform="translate(89.87 96.83)">sin<tspan class="cls-4" x="10.7" y="0">c</tspan><tspan x="14.39" y="0" xml:space="preserve">e  1997</tspan></text><text class="cls-5" transform="translate(0 86.83)"><tspan class="cls-6">D</tspan><tspan x="9.96" y="0">A-HE</tspan><tspan class="cls-7" x="43.42" y="0">R</tspan><tspan x="52.26" y="0">-PUBLICI</tspan><tspan class="cls-8" x="113.02" y="0">T</tspan><tspan x="121.62" y="0">Y</tspan></text><path class="cls-9" d="M79.15,22.16c-.36-.21-.73-.4-1.1-.57s-.9-.4-1.37-.57a15.55,15.55,0,0,0-1.91-.57H65V52.61h9.76A15.55,15.55,0,0,0,76.68,52c.47-.17.92-.36,1.37-.57s.74-.37,1.1-.57a16.5,16.5,0,0,0,0-28.74ZM67.25,50.88h-.57V22.16h.57Zm7.5,0H67.82V22.16h6.93a14.84,14.84,0,0,1,0,28.74Z"/><polygon class="cls-9" points="120.08 20.1 120.08 52.93 119.53 52.93 119.53 52.94 118.41 52.94 118.41 37.29 100.34 37.29 100.34 52.93 99.78 52.93 99.78 37.29 99.22 37.29 99.22 52.93 98.67 52.93 98.67 52.93 98.11 52.93 98.11 52.93 97.55 52.93 97.55 20.09 98.11 20.09 98.11 20.08 98.67 20.08 98.67 20.09 99.22 20.09 99.22 35.62 99.78 35.62 99.78 20.08 100.34 20.08 100.34 35.62 118.41 35.62 118.41 20.09 119.53 20.09 119.53 20.1 120.08 20.1"/></g></g></svg>