<svg xmlns="http://www.w3.org/2000/svg" viewBox="0 0 1919.66 150.83"><defs><style>.cls-1{fill:#1e1e1e;opacity:0.6;}.cls-2{fill:#1d1d1d;opacity:0.57;}.cls-3{fill:#1b1b1b;opacity:0.54;}.cls-4{fill:#1a1a1a;opacity:0.51;}.cls-5{fill:#181818;opacity:0.49;}.cls-6{fill:#171717;opacity:0.46;}.cls-7{fill:#151515;opacity:0.43;}.cls-8{fill:#141414;opacity:0.4;}.cls-9{fill:#131313;opacity:0.37;}.cls-10{fill:#111;opacity:0.34;}.cls-11{fill:#101010;opacity:0.31;}.cls-12{fill:#0e0e0e;opacity:0.29;}.cls-13{fill:#0d0d0d;opacity:0.26;}.cls-14{fill:#0b0b0b;opacity:0.23;}.cls-15{fill:#0a0a0a;opacity:0.2;}.cls-16{fill:#090909;opacity:0.17;}.cls-17{fill:#070707;opacity:0.14;}.cls-18{fill:#060606;opacity:0.11;}.cls-19{fill:#040404;opacity:0.09;}.cls-20{fill:#030303;opacity:0.06;}.cls-21{fill:#010101;opacity:0.03;}.cls-22{opacity:0;}</style></defs><g id="圖層_2" data-name="圖層 2"><g id="圖層_1-2" data-name="圖層 1"><rect class="cls-1" width="1919.66" height="12.22"/><rect class="cls-2" y="6.6" width="1919.66" height="12.22"/><rect class="cls-3" y="13.2" width="1919.66" height="12.22"/><rect class="cls-4" y="19.8" width="1919.66" height="12.22"/><rect class="cls-5" y="26.4" width="1919.66" height="12.22"/><rect class="cls-6" y="33" width="1919.66" height="12.22"/><rect class="cls-7" y="39.6" width="1919.66" height="12.22"/><rect class="cls-8" y="46.2" width="1919.66" height="12.22"/><rect class="cls-9" y="52.8" width="1919.66" height="12.22"/><rect class="cls-10" y="59.41" width="1919.66" height="12.22"/><rect class="cls-11" y="66.01" width="1919.66" height="12.22"/><rect class="cls-12" y="72.61" width="1919.66" height="12.22"/><rect class="cls-13" y="79.21" width="1919.66" height="12.22"/><rect class="cls-14" y="85.81" width="1919.66" height="12.22"/><rect class="cls-15" y="92.41" width="1919.66" height="12.22"/><rect class="cls-16" y="99.01" width="1919.66" height="12.22"/><rect class="cls-17" y="105.61" width="1919.66" height="12.22"/><rect class="cls-18" y="112.21" width="1919.66" height="12.22"/><rect class="cls-19" y="118.81" width="1919.66" height="12.22"/><rect class="cls-20" y="125.41" width="1919.66" height="12.22"/><rect class="cls-21" y="132.01" width="1919.66" height="12.22"/><rect class="cls-22" y="138.61" width="1919.66" height="12.22"/><rect class="cls-1" width="1919.66" height="12.22"/><rect class="cls-2" y="6.6" width="1919.66" height="12.22"/><rect class="cls-3" y="13.2" width="1919.66" height="12.22"/><rect class="cls-4" y="19.8" width="1919.66" height="12.22"/><rect class="cls-5" y="26.4" width="1919.66" height="12.22"/><rect class="cls-6" y="33" width="1919.66" height="12.22"/><rect class="cls-7" y="39.6" width="1919.66" height="12.22"/><rect class="cls-8" y="46.2" width="1919.66" height="12.22"/><rect class="cls-9" y="52.8" width="1919.66" height="12.22"/><rect class="cls-10" y="59.41" width="1919.66" height="12.22"/><rect class="cls-11" y="66.01" width="1919.66" height="12.22"/><rect class="cls-12" y="72.61" width="1919.66" height="12.22"/><rect class="cls-13" y="79.21" width="1919.66" height="12.22"/><rect class="cls-14" y="85.81" width="1919.66" height="12.22"/><rect class="cls-15" y="92.41" width="1919.66" height="12.22"/><rect class="cls-16" y="99.01" width="1919.66" height="12.22"/><rect class="cls-17" y="105.61" width="1919.66" height="12.22"/><rect class="cls-18" y="112.21" width="1919.66" height="12.22"/><rect class="cls-19" y="118.81" width="1919.66" height="12.22"/><rect class="cls-20" y="125.41" width="1919.66" height="12.22"/><rect class="cls-21" y="132.01" width="1919.66" height="12.22"/><rect class="cls-22" y="138.61" width="1919.66" height="12.22"/></g></g></svg>